<svg xmlns="http://www.w3.org/2000/svg" xmlns:xlink="http://www.w3.org/1999/xlink" width="1040" height="322.23"><rect width="1040" height="322.23" rx="0" ry="0" class="a"></rect><svg height="282.23" viewBox="0 0 100 28.223000000000003" width="1000" x="20" xmlns="http://www.w3.org/2000/svg" xmlns:xlink="http://www.w3.org/1999/xlink" y="20"><style>.a{fill:rgb(40,45,53)}.b{font-family:'Fira Code',Monaco,Consolas,Menlo,'Bitstream Vera Sans Mono','Powerline Symbols',monospace}.c{fill:transparent}.d{fill:rgb(185,192,203);white-space:pre}.e{fill:rgb(111,119,131);white-space:pre}.f{fill:rgb(111,119,131);font-weight:bold;white-space:pre}.g{fill:rgb(111,119,131);font-style:italic;white-space:pre}</style><g font-family="&#x27;Fira Code&#x27;,Monaco,Consolas,Menlo,&#x27;Bitstream Vera Sans Mono&#x27;,&#x27;Powerline Symbols&#x27;,monospace" font-size="1.67" class="b"><defs><symbol id="a"><rect height="14" width="100" x="0" y="0" class="c"></rect></symbol></defs><rect height="28.223000000000003" width="100" class="a"></rect><svg x="0" y="0" width="100"><svg x="0"><use xlink:href="#a"></use><text x="0" y="1.67" class="d">Rmd</text><text x="4.008" y="1.67" class="d">AST</text><text x="0" y="3.8409999999999997" class="d">├─YAML</text><text x="7.013999999999999" y="3.8409999999999997" class="e">[4</text><text x="10.02" y="3.8409999999999997" class="e">lines]</text><text x="0" y="6.012" class="d">├─Heading</text><text x="10.02" y="6.012" class="e">[h1]</text><text x="15.029999999999998" y="6.012" class="e">-</text><text x="17.034" y="6.012" class="f">test</text><text x="0" y="8.183" class="d">│</text><text x="2.004" y="8.183" class="d">└─Chunk</text><text x="10.02" y="8.183" class="e">[r,</text><text x="14.027999999999999" y="8.183" class="e">1</text><text x="16.032" y="8.183" class="e">opt,</text><text x="21.041999999999998" y="8.183" class="e">1</text><text x="23.045999999999996" y="8.183" class="e">lines]</text><text x="30.059999999999995" y="8.183" class="e">-</text><text x="32.064" y="8.183" class="f">setup</text><text x="0" y="10.354" class="d">└─Heading</text><text x="10.02" y="10.354" class="e">[h1]</text><text x="15.029999999999998" y="10.354" class="e">-</text><text x="17.034" y="10.354" class="f">hello</text><text x="2.004" y="12.525" class="d">├─Heading</text><text x="12.024" y="12.525" class="e">[h2]</text><text x="17.034" y="12.525" class="e">-</text><text x="19.037999999999997" y="12.525" class="f">R</text><text x="21.041999999999998" y="12.525" class="f">Markdown</text><text x="2.004" y="14.696" class="d">│</text><text x="4.008" y="14.696" class="d">├─Markdown</text><text x="15.029999999999998" y="14.696" class="e">[4</text><text x="18.035999999999998" y="14.696" class="e">lines]</text><text x="2.004" y="16.866999999999997" class="d">│</text><text x="4.008" y="16.866999999999997" class="d">├─Chunk</text><text x="12.024" y="16.866999999999997" class="e">[r,</text><text x="16.032" y="16.866999999999997" class="e">1</text><text x="18.035999999999998" y="16.866999999999997" class="e">lines]</text><text x="25.05" y="16.866999999999997" class="e">-</text><text x="27.054" y="16.866999999999997" class="f">cars</text><text x="2.004" y="19.037999999999997" class="d">│</text><text x="4.008" y="19.037999999999997" class="d">└─Chunk</text><text x="12.024" y="19.037999999999997" class="e">[r,</text><text x="16.032" y="19.037999999999997" class="e">1</text><text x="18.035999999999998" y="19.037999999999997" class="e">lines]</text><text x="25.05" y="19.037999999999997" class="e">-</text><text x="27.054" y="19.037999999999997" class="g">&lt;unnamed&gt;</text><text x="2.004" y="21.209000000000003" class="d">└─Heading</text><text x="12.024" y="21.209000000000003" class="e">[h2]</text><text x="17.034" y="21.209000000000003" class="e">-</text><text x="19.037999999999997" y="21.209000000000003" class="f">Including</text><text x="29.058" y="21.209000000000003" class="f">Plots</text><text x="4.008" y="23.380000000000003" class="d">├─Markdown</text><text x="15.029999999999998" y="23.380000000000003" class="e">[2</text><text x="18.035999999999998" y="23.380000000000003" class="e">lines]</text><text x="4.008" y="25.550999999999995" class="d">├─Chunk</text><text x="12.024" y="25.550999999999995" class="e">[r,</text><text x="16.032" y="25.550999999999995" class="e">1</text><text x="18.035999999999998" y="25.550999999999995" class="e">opt,</text><text x="23.045999999999996" y="25.550999999999995" class="e">1</text><text x="25.05" y="25.550999999999995" class="e">lines]</text><text x="32.064" y="25.550999999999995" class="e">-</text><text x="34.068" y="25.550999999999995" class="f">pressure</text><text x="4.008" y="27.722" class="d">└─Markdown</text><text x="15.029999999999998" y="27.722" class="e">[1</text><text x="18.035999999999998" y="27.722" class="e">lines]</text></svg></svg></g></svg></svg>