<svg xmlns="http://www.w3.org/2000/svg" xmlns:xlink="http://www.w3.org/1999/xlink" width="1040" height="626.17"><rect width="1040" height="626.17" rx="0" ry="0" class="a"></rect><svg height="586.17" viewBox="0 0 100 58.617" width="1000" x="20" xmlns="http://www.w3.org/2000/svg" xmlns:xlink="http://www.w3.org/1999/xlink" y="20"><style>.a{fill:rgb(40,45,53)}.b{font-family:'Fira Code',Monaco,Consolas,Menlo,'Bitstream Vera Sans Mono','Powerline Symbols',monospace}.c{fill:rgb(185,192,203);white-space:pre}.d{fill:transparent}.e{fill:rgb(185,192,203);font-weight:bold;white-space:pre}.f{fill:rgb(113,190,242);white-space:pre}.g{fill:rgb(185,192,203);font-style:italic;white-space:pre}.h{fill:rgb(218,218,218)}.i{fill:rgb(38,38,38);white-space:pre}</style><g font-family="&#x27;Fira Code&#x27;,Monaco,Consolas,Menlo,&#x27;Bitstream Vera Sans Mono&#x27;,&#x27;Powerline Symbols&#x27;,monospace" font-size="1.67" class="b"><defs><symbol id="1"><text x="0" y="1.67" class="c">─────────────</text></symbol><symbol id="a"><rect height="28" width="100" x="0" y="0" class="d"></rect></symbol></defs><rect height="58.617" width="100" class="a"></rect><svg x="0" y="0" width="100"><svg x="0"><use xlink:href="#a"></use><text x="0" y="1.67" class="c">MS</text><text x="3.006" y="1.67" class="c">Word</text><text x="8.016" y="1.67" class="c">documents.</text><text x="19.037999999999997" y="1.67" class="c">For</text><text x="23.045999999999996" y="1.67" class="c">more</text><text x="28.055999999999997" y="1.67" class="c">details</text><text x="36.071999999999996" y="1.67" class="c">on</text><text x="39.077999999999996" y="1.67" class="c">using</text><text x="45.089999999999996" y="1.67" class="c">R</text><text x="47.093999999999994" y="1.67" class="c">Markdown</text><text x="56.111999999999995" y="1.67" class="c">see</text><text x="60.11999999999999" y="1.67" class="c">&lt;http://rmarkdown.rstudio.com&gt;.</text><text x="0" y="6.012" class="c">When</text><text x="5.01" y="6.012" class="c">you</text><text x="9.017999999999999" y="6.012" class="c">click</text><text x="15.029999999999998" y="6.012" class="c">the</text><text x="19.037999999999997" y="6.012" class="c">**Knit**</text><text x="28.055999999999997" y="6.012" class="c">button</text><text x="35.06999999999999" y="6.012" class="c">a</text><text x="37.074" y="6.012" class="c">document</text><text x="46.09199999999999" y="6.012" class="c">will</text><text x="51.102" y="6.012" class="c">be</text><text x="54.108" y="6.012" class="c">generated</text><text x="64.128" y="6.012" class="c">that</text><text x="69.13799999999999" y="6.012" class="c">includes</text><text x="78.15599999999999" y="6.012" class="c">both</text><text x="83.16599999999998" y="6.012" class="c">content</text><text x="91.182" y="6.012" class="c">as</text><text x="94.18799999999999" y="6.012" class="c">well</text><text x="99.198" y="6.012" class="c">a</text><text x="0" y="8.183" class="c">s</text><text x="2.004" y="8.183" class="c">the</text><text x="6.012" y="8.183" class="c">output</text><text x="13.026" y="8.183" class="c">of</text><text x="16.032" y="8.183" class="c">any</text><text x="20.04" y="8.183" class="c">embedded</text><text x="29.058" y="8.183" class="c">R</text><text x="31.061999999999998" y="8.183" class="c">code</text><text x="36.071999999999996" y="8.183" class="c">chunks</text><text x="43.086" y="8.183" class="c">within</text><text x="50.1" y="8.183" class="c">the</text><text x="54.108" y="8.183" class="c">document.</text><text x="64.128" y="8.183" class="c">You</text><text x="68.136" y="8.183" class="c">can</text><text x="72.14399999999999" y="8.183" class="c">embed</text><text x="78.15599999999999" y="8.183" class="c">an</text><text x="81.16199999999999" y="8.183" class="c">R</text><text x="83.16599999999998" y="8.183" class="c">code</text><text x="88.17599999999999" y="8.183" class="c">chunk</text><text x="94.18799999999999" y="8.183" class="c">like</text><text x="99.198" y="8.183" class="c">t</text><text x="0" y="10.354" class="c">his:</text><text x="0" y="14.696" class="c">──</text><text x="3.006" y="14.696" class="e">Chunk</text><text x="9.017999999999999" y="14.696" class="c">[engine:</text><text x="18.035999999999998" y="14.696" class="f">&#x27;r&#x27;</text><text x="22.043999999999997" y="14.696" class="c">name:</text><text x="28.055999999999997" y="14.696" class="f">&#x27;cars&#x27;</text><text x="34.068" y="14.696" class="c">]</text><text x="36.071999999999996" y="14.696" class="c">────────────────────────────────────────────────────────────────</text><use xlink:href="#1" y="15.197"></use><text x="0" y="19.037999999999997" class="c">┌─────────────┐</text><text x="0" y="21.209000000000003" class="c">│summary(cars)│</text><text x="0" y="23.380000000000003" class="c">└─────────────┘</text><text x="0" y="25.550999999999995" class="c">──</text><text x="3.006" y="25.550999999999995" class="e">Chunk</text><text x="9.017999999999999" y="25.550999999999995" class="c">[engine:</text><text x="18.035999999999998" y="25.550999999999995" class="f">&#x27;r&#x27;</text><text x="21.041999999999998" y="25.550999999999995" class="c">]</text><text x="23.045999999999996" y="25.550999999999995" class="c">─────────────────────────────────────────────────────────────────────────────</text><use xlink:href="#1" y="26.052"></use><text x="0" y="29.893" class="c">┌──────────────────────────┐</text><text x="0" y="32.064" class="c">│knitr::knit_patterns$get()│</text><text x="0" y="34.235" class="c">└──────────────────────────┘</text><text x="0" y="36.406" class="c">──</text><text x="3.006" y="36.406" class="e">Heading</text><text x="11.021999999999998" y="36.406" class="c">[h2]</text><text x="16.032" y="36.406" class="c">-</text><text x="18.035999999999998" y="36.406" class="g">Including</text><text x="28.055999999999997" y="36.406" class="g">Plots</text><text x="34.068" y="36.406" class="c">──────────────────────────────────────────────────────────────────</text><use xlink:href="#1" y="36.907000000000004"></use><text x="0" y="40.748000000000005" class="c">You</text><text x="4.008" y="40.748000000000005" class="c">can</text><text x="8.016" y="40.748000000000005" class="c">also</text><text x="13.026" y="40.748000000000005" class="c">embed</text><text x="19.037999999999997" y="40.748000000000005" class="c">plots,</text><text x="26.052" y="40.748000000000005" class="c">for</text><text x="30.059999999999995" y="40.748000000000005" class="c">example:</text><text x="0" y="45.09" class="c">──</text><text x="3.006" y="45.09" class="e">Chunk</text><text x="9.017999999999999" y="45.09" class="c">[engine:</text><text x="18.035999999999998" y="45.09" class="f">&#x27;r&#x27;</text><text x="22.043999999999997" y="45.09" class="c">name:</text><text x="28.055999999999997" y="45.09" class="f">&#x27;pressure&#x27;</text><text x="39.077999999999996" y="45.09" class="c">options:</text><rect height="2.171" width="14" x="48.096" y="43.42" class="h"></rect><text x="48.096" y="45.09" class="i">`echo = FALSE`</text><text x="62.123999999999995" y="45.09" class="c">]</text><text x="64.128" y="45.09" class="c">────────────────────────────────────</text><use xlink:href="#1" y="45.591"></use><text x="0" y="49.431999999999995" class="c">┌──────────────┐</text><text x="0" y="51.603" class="c">│plot(pressure)│</text><text x="0" y="53.774" class="c">└──────────────┘</text><text x="0" y="55.945" class="c">Note</text><text x="5.01" y="55.945" class="c">that</text><text x="10.02" y="55.945" class="c">the</text><text x="14.027999999999999" y="55.945" class="c">`echo</text><text x="20.04" y="55.945" class="c">=</text><text x="22.043999999999997" y="55.945" class="c">FALSE`</text><text x="29.058" y="55.945" class="c">parameter</text><text x="39.077999999999996" y="55.945" class="c">was</text><text x="43.086" y="55.945" class="c">added</text><text x="49.098" y="55.945" class="c">to</text><text x="52.104" y="55.945" class="c">the</text><text x="56.111999999999995" y="55.945" class="c">code</text><text x="61.12199999999999" y="55.945" class="c">chunk</text><text x="67.134" y="55.945" class="c">to</text><text x="70.13999999999999" y="55.945" class="c">prevent</text><text x="78.15599999999999" y="55.945" class="c">printing</text><text x="87.17399999999999" y="55.945" class="c">of</text><text x="90.17999999999999" y="55.945" class="c">the</text><text x="94.18799999999999" y="55.945" class="c">R</text><text x="96.192" y="55.945" class="c">code</text><text x="1.002" y="58.11600000000001" class="c">that</text><text x="6.012" y="58.11600000000001" class="c">generated</text><text x="16.032" y="58.11600000000001" class="c">the</text><text x="20.04" y="58.11600000000001" class="c">plot.</text></svg></svg></g></svg></svg>